<svg xmlns="http://www.w3.org/2000/svg" xmlns:xlink="http://www.w3.org/1999/xlink" viewBox="0 0 592.57 122.49"><defs><style>.cls-1{fill:url(#Unbenannter_Verlauf_17);}.cls-2{fill:url(#Unbenannter_Verlauf_17-2);}.cls-3{fill:url(#Unbenannter_Verlauf_17-3);}.cls-4{fill:url(#Unbenannter_Verlauf_17-4);}.cls-5{fill:#666;}</style><linearGradient id="Unbenannter_Verlauf_17" x1="120.68" y1="50.05" x2="476.75" y2="50.05" gradientUnits="userSpaceOnUse"><stop offset="0" stop-color="#98695b"/><stop offset="0.22" stop-color="#cd947c"/><stop offset="0.48" stop-color="#fcd8ca"/><stop offset="0.74" stop-color="#cd947c"/><stop offset="1" stop-color="#98695b"/></linearGradient><linearGradient id="Unbenannter_Verlauf_17-2" x1="120.68" y1="46.67" x2="476.75" y2="46.67" xlink:href="#Unbenannter_Verlauf_17"/><linearGradient id="Unbenannter_Verlauf_17-3" x1="120.68" y1="67.51" x2="476.75" y2="67.51" xlink:href="#Unbenannter_Verlauf_17"/><linearGradient id="Unbenannter_Verlauf_17-4" x1="120.68" y1="46.06" x2="476.75" y2="46.06" xlink:href="#Unbenannter_Verlauf_17"/></defs><title>Logo_1-farbig</title><g id="Ebene_2" data-name="Ebene 2"><g id="Ebene_1-2" data-name="Ebene 1"><path class="cls-1" d="M455.31,52.29h.2q.81,0,2.45-1.63a2.82,2.82,0,0,0,1-1.84c0-.41-.41-.75-1.23-1h-.82q-1.43,0-1.84,1.84v1.63C455.1,52,455.17,52.29,455.31,52.29Z"/><path class="cls-2" d="M142.37,48.82a1.79,1.79,0,0,0,.82.2q1.43,0,1.63-1.84a8.9,8.9,0,0,0,.2-1.63,2.15,2.15,0,0,0-.2-1.23h-.2q-.82,0-2.66,1.84a3,3,0,0,0-.82,1.63Q141.15,48.62,142.37,48.82Z"/><path class="cls-3" d="M263.09,62.51a1.18,1.18,0,0,0-.82.41q-.41.41-3.88,4.9-3.47,4.9-7.56,9.6a51.18,51.18,0,0,1-6.33,6.74Q241.64,87,240,86.81q-2.45-.61-1-11,1.23-10.21,2.66-20-.82-1.84-2-1.43a12.34,12.34,0,0,0-2.25,1q-2.86,4.09-9,14.5-6.13,10.62-8.58,9.19-2-1,0-13.07,1.84-11.64,5.92-11.64a4.55,4.55,0,0,1,3.88,2.45q1.22,2.45.41,2.45-.82.41-.41,1.43.41.82,1.43.41,1-.81,0-4.29-1.43-3.27-5.92-3.47h-.41q-7.56,0-11.23,8.58a19.63,19.63,0,0,0-1.73,4.46q-2.34,2.68-6.65,7.39-9.19,9.8-11.44,9.4-1.43,0-1.23-4.9,0-4.7.41-10.83a79.55,79.55,0,0,0-.41-14.09q-.61-6.74-4.9-6.74h-.41Q183,47,178.73,57q-4.29,10.22-4.49,10.21a43.8,43.8,0,0,0-1.84-5.11q-1.84-4.49-2.66-6.13-.82-.81-2.25,0a4.33,4.33,0,0,0-1.63,1.84v1c0,1.24.1,2.88.29,4.86q-2.62,2.69-11.32,10.87-10,9.8-13.48,8.17-2-1-1.23-10.21,1-9.39.21-11.23a2.63,2.63,0,0,0-1.63-1,1.59,1.59,0,0,0-.61.2,3.85,3.85,0,0,0-2.25,1q-2.25,1-6.95,3.06-5.31,1.84-12.66,4.49-14.09,4.5-33.5,9.19a192.9,192.9,0,0,1-37.58,5.11Q20,84.16,11,78.44q-8.78-5.52-9.4-6.54a2.74,2.74,0,0,0,2.45-.82,2.25,2.25,0,0,0,.82-2,2.38,2.38,0,0,0-2.45-1.63,2.75,2.75,0,0,0-2.45,2v.82q0,4.09,9.6,9.4Q18.38,85,38.61,85a62.56,62.56,0,0,0,6.95-.41,200.46,200.46,0,0,0,22.06-2q10.82-1.63,20.63-4.08A289.78,289.78,0,0,0,120.11,69q10.83-4.08,15.12-5.92-.61,1.43-2,4.49a18.4,18.4,0,0,0-1.63,7.56,8.23,8.23,0,0,0,.61,3.27,8.28,8.28,0,0,0,2,4.08A11.87,11.87,0,0,0,139.31,85h1.23a10.45,10.45,0,0,0,4.9-1.43,70.59,70.59,0,0,0,7.15-4.7,97.56,97.56,0,0,0,10.21-9.6c1.41-1.46,2.56-2.7,3.48-3.74a16.2,16.2,0,0,0,1.83,8,9.75,9.75,0,0,0,3.06.41,3.13,3.13,0,0,0,2.66-1.43A114,114,0,0,1,180,57q4.08-8.37,5.72-8.37,1.43,0,1,4.49-.82,4.5-1.43,10.21a73.59,73.59,0,0,0-.41,7.76,20,20,0,0,0,.41,7.15,10.1,10.1,0,0,0,2.45,4.29A8.05,8.05,0,0,0,192.21,85h.61q3.88,0,12.87-9.8,3.39-3.76,5.68-6.35a11,11,0,0,0,0,1.66,15.38,15.38,0,0,0,1.23,6.13,15,15,0,0,0,2.45,2.66,6.37,6.37,0,0,0,3.47,1.63q3.47,1,8.38-6.33,4.9-7.76,5.31-8.58,0,.82-.41,7.15a26.09,26.09,0,0,0,1.84,11,8.07,8.07,0,0,0,2,2.66,9.3,9.3,0,0,0,3.06,1.63h.41q2.65,0,6.74-3.88a103.37,103.37,0,0,0,9-9.8q3.47-4.29,5.92-8,2.65-3.47,2.86-3.88A.66.66,0,0,0,263.09,62.51Z"/><path class="cls-4" d="M583.38,65q-11-5.72-36.36-5.11a187.34,187.34,0,0,0-44.73,6.54q-20.22,5.52-32.89,10-6.95,2.45-11.44,4.09-4.29,1.23-5.92.61-2.66-.41-.2-10.62A118.88,118.88,0,0,0,454.28,58,3.74,3.74,0,0,0,452,56.17h-.61a2.53,2.53,0,0,0-1.43.41,73.88,73.88,0,0,0-4.7,8,19.53,19.53,0,0,0-2.93,6.51q-3.24,4.34-6.88,8.81a73.69,73.69,0,0,1-6.74,7.35q-3.48,3.27-5.11,3.06-2.45-.81-4.49-9.19a89,89,0,0,1-2.86-17Q422,57,428.14,48.21A208.9,208.9,0,0,0,440,28.6q5.1-10,5.92-17.16a15,15,0,0,0-1-6.74A7.63,7.63,0,0,0,440.39,1a20.11,20.11,0,0,0-5.92-1,15.51,15.51,0,0,0-10.42,4.09q-6.74,6.54-10.9,17.36a61.66,61.66,0,0,0-3.76,12.46,89.45,89.45,0,0,0-1.88,13.48,63.16,63.16,0,0,0-.2,8.78,8.44,8.44,0,0,0-5.72-2.25q-7.15-.41-9.6,8.17a28.25,28.25,0,0,0-.48,3C390.14,67,388,69.89,385,73.74q-6.95,8.58-9.6,8.17-4.09-.81-5.31-10.21-1.64-9.39-2.25-11.85a6.58,6.58,0,0,0-2.25-2q-1.43-.61-2.66,1.43-1.84,2.86-6.54,12.05-4.09,9.4-6.54,9.19-2.66-.61-1-11.85,1.84-10.82,1-13.28a3.6,3.6,0,0,0-2.66-1h-1A5.07,5.07,0,0,0,343,56.79q-.66,1.33-.79,8.81c-.81.83-1.77,1.77-2.89,2.83q-4.29,4.09-9,8.17-6.13,5.11-11.85,9.19-5.52,4.09-7.15,3.27-1.84-.41,1.84-10,3.47-9.6,1.43-11.64a20.3,20.3,0,0,0-5.31-3.27A8.31,8.31,0,0,1,306,61.28q1.84-3.06,4.29-8,2.65-5.52,0-6.94a8.39,8.39,0,0,0-2.66-.41,9.57,9.57,0,0,0-5.51,2,8,8,0,0,0-3.47,6.13A12,12,0,0,0,299,57a11,11,0,0,0,6.54,7.15,60.05,60.05,0,0,1,6.13,3.06q.41.61-4.9,7.35-5.1,6.33-4.7,11.44a5.66,5.66,0,0,0,1.23,3.06,8.27,8.27,0,0,0,4.08,2,4.23,4.23,0,0,0,1.63.2q3.88,0,9.8-4.09A125.66,125.66,0,0,0,333,76.4q4.08-3.88,8-7.76l1.23-1.24c0,.66,0,1.34,0,2.06q0,11.24,6.74,12.46,3.47.61,7.35-7.35,4.29-8.17,4.49-8.78.41.21,1.43,5.11a19,19,0,0,0,4.7,8.38,12.08,12.08,0,0,0,3.27,2.66,9.21,9.21,0,0,0,4.49,1.43h.21q4.49,0,11.23-8.78c2.2-2.76,4-5.05,5.31-6.92A11.73,11.73,0,0,0,394,75.58a7.07,7.07,0,0,0,2.66,2.25,8.22,8.22,0,0,0,3.27.61q2.25.41,8.82-6.13.63,2.45,1.25,4.7,3.76,13.28,12.6,14.71c.13.27.27.41.41.41q2.65,0,7.15-4.49a107.14,107.14,0,0,0,9.6-11l2.26-3c0,.12,0,.24,0,.36a15.15,15.15,0,0,0,.2,2.45,9.1,9.1,0,0,0,2.45,4.29,11.43,11.43,0,0,0,5.92,2.66h1.23q4.49,0,15.73-4.49a275.38,275.38,0,0,1,32.27-10.42,203.19,203.19,0,0,1,22.06-4.7,163.81,163.81,0,0,1,24.72-2.66q25.33-.81,34.52,4.49,9.39,5.31,9.8,6.13a2.14,2.14,0,0,0-2.25.41c-.82.41-1.09,1-.82,1.63a2.23,2.23,0,0,0,2,1.84,2.28,2.28,0,0,0,2.45-1.63,1.19,1.19,0,0,0,.2-.82Q592.57,70.27,583.38,65Zm-278-4.9A18.08,18.08,0,0,1,304.15,56a7.48,7.48,0,0,1,1.63-5.52q1.84-3.26,3.88-2.25,1.43.61-1,5.72A41.9,41.9,0,0,1,305.38,60.05ZM407.92,71.7q-5.52,5.72-7.15,5.52-2.25-.61-2.25-11.44-.41-10.82,2.86-10.83A7,7,0,0,1,407.3,58a100.74,100.74,0,0,0,1.23,13.07Zm8-23.7a103.59,103.59,0,0,1,.82-13.28q1.43-15.11,6.95-25.53,5.52-10.62,16.75-6.94,6.94,2.25,3.88,12.46a93.75,93.75,0,0,1-10.21,22.47,101.57,101.57,0,0,1-6.74,10.21q-3.48,5.31-6.95,9.81-2.25,2.86-4.29,5.52V61.08Q415.88,54.54,415.88,48Z"/><path class="cls-5" d="M157.6,122.27v-5.17h-7.08v5.17h-1.34V110.53h1.34v5.3h7.08v-5.3h1.34v11.74Z"/><path class="cls-5" d="M167.77,119.3l-1.31,3H165l5.27-11.74h1.39l5.25,11.74h-1.46l-1.31-3Zm3.19-7.24-2.62,6h5.27Z"/><path class="cls-5" d="M183,122.27V110.53h1.34v11.74Z"/><path class="cls-5" d="M197.44,118.53c-.25,0-.52,0-.79,0h-3.12v3.71h-1.34V110.53h4.46c2.93,0,4.63,1.44,4.63,3.94a3.68,3.68,0,0,1-2.63,3.81l2.75,4h-1.53Zm-.79-1.26c2.13,0,3.34-.94,3.34-2.77s-1.21-2.68-3.34-2.68h-3.12v5.45Z"/><path class="cls-5" d="M223.74,120.54a5,5,0,0,1-3.64,1.79,3.31,3.31,0,0,1-3.49-3.22c0-1.71,1.29-2.6,2.67-3.34a4.64,4.64,0,0,1-1.21-2.77,2.59,2.59,0,0,1,2.87-2.53,2.43,2.43,0,0,1,2.72,2.36c0,1.59-1.44,2.41-2.9,3.19.72.84,1.68,1.81,2.85,3a11.23,11.23,0,0,0,1.21-2.28l.89.69a11.58,11.58,0,0,1-1.32,2.35l2,2-.7.74Zm-.75-.75c-1.29-1.29-2.35-2.36-3.14-3.29-1.16.64-2.13,1.34-2.13,2.52a2.28,2.28,0,0,0,2.43,2.25A3.92,3.92,0,0,0,223,119.79Zm-2.82-4.46c1.29-.67,2.42-1.31,2.42-2.48a1.46,1.46,0,0,0-1.64-1.46,1.64,1.64,0,0,0-1.79,1.61A4.13,4.13,0,0,0,220.17,115.33Z"/><path class="cls-5" d="M252,122.27l0-9.68L247.75,121h-.8l-4.26-8.44v9.68h-1.27V110.53h1.66l4.29,8.45,4.28-8.45h1.64v11.74Z"/><path class="cls-5" d="M262.13,119.3l-1.31,3H259.4l5.27-11.74h1.39l5.25,11.74h-1.46l-1.31-3Zm3.19-7.24-2.62,6H268Z"/><path class="cls-5" d="M281,116.7l-2.28,2.5v3.07H277.4V110.53h1.34v6.76l6.31-6.76h1.59l-4.65,5.1,5,6.64h-1.64Z"/><path class="cls-5" d="M294.72,111.82v3.86h5.92V117h-5.92v4h6.84v1.27h-8.18V110.53h8v1.29Z"/><path class="cls-5" d="M307.84,117.68v-1h3.94v1Z"/><path class="cls-5" d="M328.48,117.44a4.52,4.52,0,0,1-4.91,4.9c-3.08,0-4.95-1.84-4.95-4.9v-6.91H320v6.91a3.59,3.59,0,1,0,7.18,0v-6.91h1.34Z"/><path class="cls-5" d="M340.43,110.53c2.9,0,4.58,1.44,4.58,3.94s-1.68,4.09-4.58,4.09h-3.07v3.71H336V110.53Zm-3.07,6.74h3c2.11,0,3.34-.94,3.34-2.77s-1.22-2.68-3.34-2.68h-3Z"/><path class="cls-5" d="M361.37,119.3l-1.31,3h-1.42l5.27-11.74h1.39l5.25,11.74h-1.46l-1.31-3Zm3.19-7.24-2.62,6h5.27Z"/><path class="cls-5" d="M381.88,118.53c-.25,0-.52,0-.79,0H378v3.71h-1.34V110.53h4.46c2.93,0,4.63,1.44,4.63,3.94a3.68,3.68,0,0,1-2.63,3.81l2.75,4h-1.53Zm-.79-1.26c2.13,0,3.34-.94,3.34-2.77s-1.21-2.68-3.34-2.68H378v5.45Z"/><path class="cls-5" d="M396.58,111.82v10.45h-1.34V111.82h-3.82v-1.29h9v1.29Z"/><path class="cls-5" d="M406.62,122.27V110.53H408v11.74Z"/><path class="cls-5" d="M423,111.57l-.57,1.26a6.06,6.06,0,0,0-3.24-1c-1.51,0-2.5.57-2.5,1.56,0,3,6.61,1.44,6.59,5.7,0,2-1.73,3.22-4.24,3.22a6.7,6.7,0,0,1-4.49-1.79l.6-1.21A5.84,5.84,0,0,0,419,121c1.69,0,2.75-.69,2.75-1.81,0-3.09-6.59-1.44-6.59-5.65,0-1.84,1.63-3,4.06-3A6.94,6.94,0,0,1,423,111.57Z"/><path class="cls-5" d="M433.85,111.82v10.45h-1.34V111.82h-3.82v-1.29h9v1.29Z"/></g></g></svg>